<?xml version="1.0" encoding="UTF-8"?>
<svg xmlns="http://www.w3.org/2000/svg" width="2200" height="1180" viewBox="0 0 2200 1180">
<rect width="100%" height="100%" fill="#ffffff"/>
<text x="1100" y="44" text-anchor="middle" font-family="Arial, sans-serif" font-size="42" font-weight="700" fill="#111111">Agentic System Flow (Current Implementation)</text>
<rect x="40" y="110" width="240" height="72" rx="8" fill="#ffffff" stroke="#111111" stroke-width="1.4"/>
<text x="160.0" y="146.0" text-anchor="middle" font-family="Arial, sans-serif" font-size="13" fill="#111111">
<tspan x="160.0" dy="0">POST /api/v1/analysis</tspan>
</text>
<rect x="330" y="110" width="300" height="72" rx="8" fill="#ffffff" stroke="#111111" stroke-width="1.4"/>
<text x="480.0" y="138.2" text-anchor="middle" font-family="Arial, sans-serif" font-size="13" fill="#111111">
<tspan x="480.0" dy="0">Create Redis state</tspan>
<tspan x="480.0" dy="17">status=pending</tspan>
</text>
<rect x="680" y="110" width="300" height="72" rx="8" fill="#ffffff" stroke="#111111" stroke-width="1.4"/>
<text x="830.0" y="146.0" text-anchor="middle" font-family="Arial, sans-serif" font-size="13" fill="#111111">
<tspan x="830.0" dy="0">Background pipeline starts</tspan>
</text>
<rect x="1030" y="110" width="300" height="72" rx="8" fill="#ffffff" stroke="#111111" stroke-width="1.4"/>
<text x="1180.0" y="138.2" text-anchor="middle" font-family="Arial, sans-serif" font-size="13" fill="#111111">
<tspan x="1180.0" dy="0">Round 0: predict_alpha</tspan>
<tspan x="1180.0" dy="17">status=predicting</tspan>
</text>
<line x1="280" y1="146" x2="330" y2="146" stroke="#111111" stroke-width="1.6"/>
<polygon points="330,146 321,141.5 321,150.5" fill="#111111"/>
<line x1="630" y1="146" x2="680" y2="146" stroke="#111111" stroke-width="1.6"/>
<polygon points="680,146 671,141.5 671,150.5" fill="#111111"/>
<line x1="980" y1="146" x2="1030" y2="146" stroke="#111111" stroke-width="1.6"/>
<polygon points="1030,146 1021,141.5 1021,150.5" fill="#111111"/>
<rect x="1400" y="70" width="280" height="62" rx="8" fill="#f2f2f2" stroke="#111111" stroke-width="1.4"/>
<text x="1540.0" y="101.0" text-anchor="middle" font-family="Arial, sans-serif" font-size="13" fill="#111111">
<tspan x="1540.0" dy="0">run_chronos_inference</tspan>
</text>
<rect x="1400" y="150" width="280" height="62" rx="8" fill="#f2f2f2" stroke="#111111" stroke-width="1.4"/>
<text x="1540.0" y="181.0" text-anchor="middle" font-family="Arial, sans-serif" font-size="13" fill="#111111">
<tspan x="1540.0" dy="0">run_fincast_lora_inference</tspan>
</text>
<line x1="1330" y1="130" x2="1400" y2="100" stroke="#111111" stroke-width="1.6"/>
<polygon points="1400,100 1391,95.5 1391,104.5" fill="#111111"/>
<text x="1365.0" y="108.0" text-anchor="middle" font-family="Arial, sans-serif" font-size="11" fill="#111111">chronos</text>
<line x1="1330" y1="162" x2="1400" y2="181" stroke="#111111" stroke-width="1.6"/>
<polygon points="1400,181 1391,176.5 1391,185.5" fill="#111111"/>
<text x="1365.0" y="164.5" text-anchor="middle" font-family="Arial, sans-serif" font-size="11" fill="#111111">fincast_lora</text>
<rect x="1730" y="70" width="220" height="62" rx="8" fill="#e8e8e8" stroke="#111111" stroke-width="1.4"/>
<text x="1840.0" y="101.0" text-anchor="middle" font-family="Arial, sans-serif" font-size="13" fill="#111111">
<tspan x="1840.0" dy="0">chronos ok?</tspan>
</text>
<rect x="1730" y="150" width="220" height="62" rx="8" fill="#e8e8e8" stroke="#111111" stroke-width="1.4"/>
<text x="1840.0" y="181.0" text-anchor="middle" font-family="Arial, sans-serif" font-size="13" fill="#111111">
<tspan x="1840.0" dy="0">fincast ok?</tspan>
</text>
<line x1="1680" y1="101" x2="1730" y2="101" stroke="#111111" stroke-width="1.6"/>
<polygon points="1730,101 1721,96.5 1721,105.5" fill="#111111"/>
<line x1="1680" y1="181" x2="1730" y2="181" stroke="#111111" stroke-width="1.6"/>
<polygon points="1730,181 1721,176.5 1721,185.5" fill="#111111"/>
<rect x="1990" y="40" width="170" height="62" rx="8" fill="#f2f2f2" stroke="#111111" stroke-width="1.4"/>
<text x="2075.0" y="71.0" text-anchor="middle" font-family="Arial, sans-serif" font-size="13" fill="#111111">
<tspan x="2075.0" dy="0">alpha stored</tspan>
</text>
<rect x="1990" y="180" width="170" height="62" rx="8" fill="#e8e8e8" stroke="#111111" stroke-width="1.4"/>
<text x="2075.0" y="211.0" text-anchor="middle" font-family="Arial, sans-serif" font-size="13" fill="#111111">
<tspan x="2075.0" dy="0">status=error</tspan>
</text>
<rect x="1990" y="110" width="170" height="62" rx="8" fill="#f2f2f2" stroke="#111111" stroke-width="1.4"/>
<text x="2075.0" y="133.2" text-anchor="middle" font-family="Arial, sans-serif" font-size="13" fill="#111111">
<tspan x="2075.0" dy="0">placeholder</tspan>
<tspan x="2075.0" dy="17">alpha</tspan>
</text>
<line x1="1950" y1="101" x2="1990" y2="71" stroke="#111111" stroke-width="1.6"/>
<polygon points="1990,71 1981,66.5 1981,75.5" fill="#111111"/>
<text x="1970.0" y="79.0" text-anchor="middle" font-family="Arial, sans-serif" font-size="11" fill="#111111">yes</text>
<line x1="1950" y1="101" x2="1990" y2="141" stroke="#111111" stroke-width="1.6"/>
<polygon points="1990,141 1981,136.5 1981,145.5" fill="#111111"/>
<text x="1970.0" y="114.0" text-anchor="middle" font-family="Arial, sans-serif" font-size="11" fill="#111111">no</text>
<line x1="2075" y1="172" x2="2075" y2="102" stroke="#111111" stroke-width="1.6"/>
<polygon points="2075,102 2070.5,111 2079.5,111" fill="#111111"/>
<line x1="1950" y1="181" x2="1990" y2="211" stroke="#111111" stroke-width="1.6"/>
<polygon points="1990,211 1981,206.5 1981,215.5" fill="#111111"/>
<text x="1970.0" y="189.0" text-anchor="middle" font-family="Arial, sans-serif" font-size="11" fill="#111111">no</text>
<line x1="1950" y1="181" x2="1990" y2="71" stroke="#111111" stroke-width="1.6"/>
<polygon points="1990,71 1985.5,80 1994.5,80" fill="#111111"/>
<text x="1970.0" y="119.0" text-anchor="middle" font-family="Arial, sans-serif" font-size="11" fill="#111111">yes</text>
<polyline points="980,182 980,260 2075,260 2075,242" fill="none" stroke="#111111" stroke-width="1.6" stroke-dasharray="6 4"/>
<polygon points="2075,242 2070.5,251 2079.5,251" fill="#111111"/>
<text x="2075" y="252" text-anchor="middle" font-family="Arial, sans-serif" font-size="11" fill="#111111">any unhandled exception</text>
<rect x="140" y="320" width="1920" height="800" rx="14" fill="#fcfcfc" stroke="#111111" stroke-width="1.2"/>
<text x="1100" y="366" text-anchor="middle" font-family="Arial, sans-serif" font-size="36" font-weight="700" fill="#111111">Committee Rounds (top-to-bottom)</text>
<rect x="220" y="410" width="420" height="72" rx="8" fill="#f2f2f2" stroke="#111111" stroke-width="1.4"/>
<text x="430.0" y="438.2" text-anchor="middle" font-family="Arial, sans-serif" font-size="13" fill="#111111">
<tspan x="430.0" dy="0">Round 1: agent analysis (parallel)</tspan>
<tspan x="430.0" dy="17">status=round_1</tspan>
</text>
<rect x="220" y="500" width="420" height="64" rx="8" fill="#ffffff" stroke="#111111" stroke-width="1.4"/>
<text x="430.0" y="532.0" text-anchor="middle" font-family="Arial, sans-serif" font-size="13" fill="#111111">
<tspan x="430.0" dy="0">Prefetch tools + trace build</tspan>
</text>
<rect x="220" y="582" width="420" height="64" rx="8" fill="#ffffff" stroke="#111111" stroke-width="1.4"/>
<text x="430.0" y="614.0" text-anchor="middle" font-family="Arial, sans-serif" font-size="13" fill="#111111">
<tspan x="430.0" dy="0">LLM AgentView JSON + correction pass</tspan>
</text>
<line x1="430" y1="482" x2="430" y2="500" stroke="#111111" stroke-width="1.6"/>
<polygon points="430,500 425.5,491 434.5,491" fill="#111111"/>
<line x1="430" y1="564" x2="430" y2="582" stroke="#111111" stroke-width="1.6"/>
<polygon points="430,582 425.5,573 434.5,573" fill="#111111"/>
<rect x="180" y="690" width="350" height="250" rx="8" fill="#ffffff" stroke="#111111" stroke-width="1.4"/>
<text x="355.0" y="793.4" text-anchor="middle" font-family="Arial, sans-serif" font-size="12" fill="#111111">
<tspan x="355.0" dy="0">Quantitative</tspan>
<tspan x="355.0" dy="16">- momentum &amp; volatility</tspan>
<tspan x="355.0" dy="16">- alpha signal strength</tspan>
<tspan x="355.0" dy="16">- technical context</tspan>
</text>
<rect x="550" y="690" width="350" height="250" rx="8" fill="#ffffff" stroke="#111111" stroke-width="1.4"/>
<text x="725.0" y="793.4" text-anchor="middle" font-family="Arial, sans-serif" font-size="12" fill="#111111">
<tspan x="725.0" dy="0">Fundamentals</tspan>
<tspan x="725.0" dy="16">- valuation and peers</tspan>
<tspan x="725.0" dy="16">- financial health</tspan>
<tspan x="725.0" dy="16">- earnings context</tspan>
</text>
<rect x="920" y="690" width="350" height="250" rx="8" fill="#ffffff" stroke="#111111" stroke-width="1.4"/>
<text x="1095.0" y="793.4" text-anchor="middle" font-family="Arial, sans-serif" font-size="12" fill="#111111">
<tspan x="1095.0" dy="0">Sentiment</tspan>
<tspan x="1095.0" dy="16">- news narrative</tspan>
<tspan x="1095.0" dy="16">- social/web pulse</tspan>
<tspan x="1095.0" dy="16">- positioning tone</tspan>
</text>
<rect x="1290" y="690" width="350" height="250" rx="8" fill="#ffffff" stroke="#111111" stroke-width="1.4"/>
<text x="1465.0" y="793.4" text-anchor="middle" font-family="Arial, sans-serif" font-size="12" fill="#111111">
<tspan x="1465.0" dy="0">Risk Guardian</tspan>
<tspan x="1465.0" dy="16">- tail risk / CVaR</tspan>
<tspan x="1465.0" dy="16">- options positioning</tspan>
<tspan x="1465.0" dy="16">- stress scenarios</tspan>
</text>
<rect x="1660" y="690" width="350" height="250" rx="8" fill="#ffffff" stroke="#111111" stroke-width="1.4"/>
<text x="1835.0" y="793.4" text-anchor="middle" font-family="Arial, sans-serif" font-size="12" fill="#111111">
<tspan x="1835.0" dy="0">Macro Regime</tspan>
<tspan x="1835.0" dy="16">- rates and curve shape</tspan>
<tspan x="1835.0" dy="16">- risk-on/off regime</tspan>
<tspan x="1835.0" dy="16">- cross-asset backdrop</tspan>
</text>
<polyline points="430,646 430,668 355.0,668 355.0,690" fill="none" stroke="#111111" stroke-width="1.6"/>
<polygon points="355.0,690 350.5,681 359.5,681" fill="#111111"/>
<polyline points="430,646 430,668 725.0,668 725.0,690" fill="none" stroke="#111111" stroke-width="1.6"/>
<polygon points="725.0,690 720.5,681 729.5,681" fill="#111111"/>
<polyline points="430,646 430,668 1095.0,668 1095.0,690" fill="none" stroke="#111111" stroke-width="1.6"/>
<polygon points="1095.0,690 1090.5,681 1099.5,681" fill="#111111"/>
<polyline points="430,646 430,668 1465.0,668 1465.0,690" fill="none" stroke="#111111" stroke-width="1.6"/>
<polygon points="1465.0,690 1460.5,681 1469.5,681" fill="#111111"/>
<polyline points="430,646 430,668 1835.0,668 1835.0,690" fill="none" stroke="#111111" stroke-width="1.6"/>
<polygon points="1835.0,690 1830.5,681 1839.5,681" fill="#111111"/>
<rect x="760" y="430" width="300" height="72" rx="8" fill="#ffffff" stroke="#111111" stroke-width="1.4"/>
<text x="910.0" y="466.0" text-anchor="middle" font-family="Arial, sans-serif" font-size="13" fill="#111111">
<tspan x="910.0" dy="0">extract_claims</tspan>
</text>
<rect x="760" y="522" width="300" height="72" rx="8" fill="#f2f2f2" stroke="#111111" stroke-width="1.4"/>
<text x="910.0" y="550.2" text-anchor="middle" font-family="Arial, sans-serif" font-size="13" fill="#111111">
<tspan x="910.0" dy="0">Round 2: debate</tspan>
<tspan x="910.0" dy="17">status=round_2</tspan>
</text>
<rect x="760" y="614" width="300" height="72" rx="8" fill="#f2f2f2" stroke="#111111" stroke-width="1.4"/>
<text x="910.0" y="642.2" text-anchor="middle" font-family="Arial, sans-serif" font-size="13" fill="#111111">
<tspan x="910.0" dy="0">Round 3: memo synthesis</tspan>
<tspan x="910.0" dy="17">status=round_3</tspan>
</text>
<rect x="1110" y="614" width="360" height="72" rx="8" fill="#f2f2f2" stroke="#111111" stroke-width="1.4"/>
<text x="1290.0" y="642.2" text-anchor="middle" font-family="Arial, sans-serif" font-size="13" fill="#111111">
<tspan x="1290.0" dy="0">Persist memo</tspan>
<tspan x="1290.0" dy="17">status=complete</tspan>
</text>
<line x1="640" y1="446" x2="760" y2="466" stroke="#111111" stroke-width="1.6"/>
<polygon points="760,466 751,461.5 751,470.5" fill="#111111"/>
<line x1="910" y1="502" x2="910" y2="522" stroke="#111111" stroke-width="1.6"/>
<polygon points="910,522 905.5,513 914.5,513" fill="#111111"/>
<line x1="910" y1="594" x2="910" y2="614" stroke="#111111" stroke-width="1.6"/>
<polygon points="910,614 905.5,605 914.5,605" fill="#111111"/>
<line x1="1060" y1="650" x2="1110" y2="650" stroke="#111111" stroke-width="1.6"/>
<polygon points="1110,650 1101,645.5 1101,654.5" fill="#111111"/>
<polyline points="2050,71 2050,290 430,290 430,410" fill="none" stroke="#111111" stroke-width="1.6"/>
<polygon points="430,410 425.5,401 434.5,401" fill="#111111"/>
<text x="1740" y="1110" text-anchor="end" font-family="Arial, sans-serif" font-size="14" fill="#111111">Solid arrow: normal path   |   Dashed arrow: exception path</text>
</svg>