<?xml version="1.0" encoding="UTF-8"?>
<svg xmlns="http://www.w3.org/2000/svg" width="1900" height="2200" viewBox="0 0 1900 2200">
<rect width="100%" height="100%" fill="#ffffff"/>
<text x="950" y="48" text-anchor="middle" font-family="Arial, sans-serif" font-size="40" font-weight="700" fill="#0f172a">Agentic System Flow (Current Implementation)</text>
<text x="950" y="82" text-anchor="middle" font-family="Arial, sans-serif" font-size="18" fill="#0f172a">Primary execution path is top-to-bottom</text>
<rect x="735.0" y="120" width="430" height="72" rx="8" fill="#f8fafc" stroke="#334155" stroke-width="1.4"/>
<text x="950.0" y="156.0" text-anchor="middle" font-family="Arial, sans-serif" font-size="13" fill="#0f172a">
<tspan x="950.0" dy="0">POST /api/v1/analysis</tspan>
</text>
<rect x="735.0" y="220" width="430" height="72" rx="8" fill="#f8fafc" stroke="#334155" stroke-width="1.4"/>
<text x="950.0" y="248.2" text-anchor="middle" font-family="Arial, sans-serif" font-size="13" fill="#0f172a">
<tspan x="950.0" dy="0">Create Redis state</tspan>
<tspan x="950.0" dy="17">status=pending</tspan>
</text>
<rect x="735.0" y="320" width="430" height="72" rx="8" fill="#f8fafc" stroke="#334155" stroke-width="1.4"/>
<text x="950.0" y="356.0" text-anchor="middle" font-family="Arial, sans-serif" font-size="13" fill="#0f172a">
<tspan x="950.0" dy="0">Background pipeline starts</tspan>
</text>
<rect x="735.0" y="420" width="430" height="72" rx="8" fill="#f8fafc" stroke="#334155" stroke-width="1.4"/>
<text x="950.0" y="448.2" text-anchor="middle" font-family="Arial, sans-serif" font-size="13" fill="#0f172a">
<tspan x="950.0" dy="0">Round 0: predict_alpha</tspan>
<tspan x="950.0" dy="17">status=predicting</tspan>
</text>
<rect x="735.0" y="520" width="430" height="64" rx="8" fill="#f8fafc" stroke="#334155" stroke-width="1.4"/>
<text x="950.0" y="552.0" text-anchor="middle" font-family="Arial, sans-serif" font-size="13" fill="#0f172a">
<tspan x="950.0" dy="0">Dispatch forecast_model branch</tspan>
</text>
<line x1="950" y1="192" x2="950" y2="220" stroke="#334155" stroke-width="1.6"/>
<polygon points="950,220 945.5,211 954.5,211" fill="#334155"/>
<line x1="950" y1="292" x2="950" y2="320" stroke="#334155" stroke-width="1.6"/>
<polygon points="950,320 945.5,311 954.5,311" fill="#334155"/>
<line x1="950" y1="392" x2="950" y2="420" stroke="#334155" stroke-width="1.6"/>
<polygon points="950,420 945.5,411 954.5,411" fill="#334155"/>
<line x1="950" y1="492" x2="950" y2="520" stroke="#334155" stroke-width="1.6"/>
<polygon points="950,520 945.5,511 954.5,511" fill="#334155"/>
<rect x="490" y="630" width="330" height="64" rx="8" fill="#dbeafe" stroke="#334155" stroke-width="1.4"/>
<text x="655.0" y="662.0" text-anchor="middle" font-family="Arial, sans-serif" font-size="13" fill="#0f172a">
<tspan x="655.0" dy="0">run_chronos_inference</tspan>
</text>
<rect x="1080" y="630" width="330" height="64" rx="8" fill="#dcfce7" stroke="#334155" stroke-width="1.4"/>
<text x="1245.0" y="662.0" text-anchor="middle" font-family="Arial, sans-serif" font-size="13" fill="#0f172a">
<tspan x="1245.0" dy="0">run_fincast_lora_inference</tspan>
</text>
<rect x="490" y="710" width="330" height="64" rx="8" fill="#e2e8f0" stroke="#334155" stroke-width="1.4"/>
<text x="655.0" y="742.0" text-anchor="middle" font-family="Arial, sans-serif" font-size="13" fill="#0f172a">
<tspan x="655.0" dy="0">chronos ok?</tspan>
</text>
<rect x="1080" y="710" width="330" height="64" rx="8" fill="#e2e8f0" stroke="#334155" stroke-width="1.4"/>
<text x="1245.0" y="742.0" text-anchor="middle" font-family="Arial, sans-serif" font-size="13" fill="#0f172a">
<tspan x="1245.0" dy="0">fincast ok?</tspan>
</text>
<polyline points="950,584 950,605 655.0,605 655.0,630" fill="none" stroke="#334155" stroke-width="1.6"/>
<polygon points="655.0,630 650.5,621 659.5,621" fill="#334155"/>
<text x="655.0" y="597" text-anchor="middle" font-family="Arial, sans-serif" font-size="11" fill="#0f172a">chronos</text>
<polyline points="950,584 950,605 1245.0,605 1245.0,630" fill="none" stroke="#334155" stroke-width="1.6"/>
<polygon points="1245.0,630 1240.5,621 1249.5,621" fill="#334155"/>
<text x="1245.0" y="597" text-anchor="middle" font-family="Arial, sans-serif" font-size="11" fill="#0f172a">fincast_lora</text>
<line x1="655.0" y1="694" x2="655.0" y2="710" stroke="#334155" stroke-width="1.6"/>
<polygon points="655.0,710 650.5,701 659.5,701" fill="#334155"/>
<line x1="1245.0" y1="694" x2="1245.0" y2="710" stroke="#334155" stroke-width="1.6"/>
<polygon points="1245.0,710 1240.5,701 1249.5,701" fill="#334155"/>
<rect x="730" y="790" width="440" height="64" rx="8" fill="#e2fbe8" stroke="#334155" stroke-width="1.4"/>
<text x="950.0" y="822.0" text-anchor="middle" font-family="Arial, sans-serif" font-size="13" fill="#0f172a">
<tspan x="950.0" dy="0">alpha stored</tspan>
</text>
<rect x="350" y="790" width="250" height="64" rx="8" fill="#fff7ed" stroke="#334155" stroke-width="1.4"/>
<text x="475.0" y="814.2" text-anchor="middle" font-family="Arial, sans-serif" font-size="13" fill="#0f172a">
<tspan x="475.0" dy="0">placeholder</tspan>
<tspan x="475.0" dy="17">alpha</tspan>
</text>
<rect x="1300" y="790" width="250" height="64" rx="8" fill="#fee2e2" stroke="#334155" stroke-width="1.4"/>
<text x="1425.0" y="822.0" text-anchor="middle" font-family="Arial, sans-serif" font-size="13" fill="#0f172a">
<tspan x="1425.0" dy="0">status=error</tspan>
</text>
<polyline points="655.0,774 655.0,774 950,774 950,790" fill="none" stroke="#334155" stroke-width="1.6"/>
<polygon points="950,790 945.5,781 954.5,781" fill="#334155"/>
<text x="950" y="766" text-anchor="middle" font-family="Arial, sans-serif" font-size="11" fill="#0f172a">yes</text>
<polyline points="655.0,774 655.0,774 475,774 475,790" fill="none" stroke="#334155" stroke-width="1.6"/>
<polygon points="475,790 470.5,781 479.5,781" fill="#334155"/>
<text x="475" y="766" text-anchor="middle" font-family="Arial, sans-serif" font-size="11" fill="#0f172a">no</text>
<polyline points="475,854 475,900 950,900 950,854" fill="none" stroke="#334155" stroke-width="1.6"/>
<polygon points="950,854 945.5,863 954.5,863" fill="#334155"/>
<polyline points="1245.0,774 1245.0,774 950,774 950,790" fill="none" stroke="#334155" stroke-width="1.6"/>
<polygon points="950,790 945.5,781 954.5,781" fill="#334155"/>
<text x="950" y="766" text-anchor="middle" font-family="Arial, sans-serif" font-size="11" fill="#0f172a">yes</text>
<polyline points="1245.0,774 1245.0,774 1425,774 1425,790" fill="none" stroke="#334155" stroke-width="1.6"/>
<polygon points="1425,790 1420.5,781 1429.5,781" fill="#334155"/>
<text x="1425" y="766" text-anchor="middle" font-family="Arial, sans-serif" font-size="11" fill="#0f172a">no</text>
<polyline points="950,492 950,754 1425,754 1425,790" fill="none" stroke="#334155" stroke-width="1.6" stroke-dasharray="6 4"/>
<polygon points="1425,790 1420.5,781 1429.5,781" fill="#334155"/>
<text x="1425" y="746" text-anchor="middle" font-family="Arial, sans-serif" font-size="11" fill="#0f172a">any unhandled exception</text>
<rect x="730" y="900" width="440" height="64" rx="8" fill="#f8fafc" stroke="#334155" stroke-width="1.4"/>
<text x="950.0" y="932.0" text-anchor="middle" font-family="Arial, sans-serif" font-size="13" fill="#0f172a">
<tspan x="950.0" dy="0">alpha payload ready</tspan>
</text>
<line x1="950" y1="854" x2="950" y2="900" stroke="#334155" stroke-width="1.6"/>
<polygon points="950,900 945.5,891 954.5,891" fill="#334155"/>
<rect x="735.0" y="1020" width="430" height="72" rx="8" fill="#dbeafe" stroke="#334155" stroke-width="1.4"/>
<text x="950.0" y="1048.2" text-anchor="middle" font-family="Arial, sans-serif" font-size="13" fill="#0f172a">
<tspan x="950.0" dy="0">Round 1: agent analysis (parallel)</tspan>
<tspan x="950.0" dy="17">status=round_1</tspan>
</text>
<line x1="950" y1="964" x2="950" y2="1020" stroke="#334155" stroke-width="1.6"/>
<polygon points="950,1020 945.5,1011 954.5,1011" fill="#334155"/>
<rect x="60" y="980" width="1780" height="1180" rx="14" fill="#f8fafc" stroke="#334155" stroke-width="1.2"/>
<text x="950" y="1060" text-anchor="middle" font-family="Arial, sans-serif" font-size="36" font-weight="700" fill="#0f172a">Committee Rounds (top-to-bottom)</text>
<rect x="735.0" y="1120" width="430" height="64" rx="8" fill="#f8fafc" stroke="#334155" stroke-width="1.4"/>
<text x="950.0" y="1152.0" text-anchor="middle" font-family="Arial, sans-serif" font-size="13" fill="#0f172a">
<tspan x="950.0" dy="0">Prefetch tools + trace build</tspan>
</text>
<rect x="735.0" y="1210" width="430" height="64" rx="8" fill="#f8fafc" stroke="#334155" stroke-width="1.4"/>
<text x="950.0" y="1242.0" text-anchor="middle" font-family="Arial, sans-serif" font-size="13" fill="#0f172a">
<tspan x="950.0" dy="0">LLM AgentView JSON + correction pass</tspan>
</text>
<line x1="950" y1="1092" x2="950" y2="1120" stroke="#334155" stroke-width="1.6"/>
<polygon points="950,1120 945.5,1111 954.5,1111" fill="#334155"/>
<line x1="950" y1="1184" x2="950" y2="1210" stroke="#334155" stroke-width="1.6"/>
<polygon points="950,1210 945.5,1201 954.5,1201" fill="#334155"/>
<rect x="90" y="1320" width="320" height="260" rx="8" fill="#e0f2fe" stroke="#334155" stroke-width="1.4"/>
<text x="250.0" y="1428.4" text-anchor="middle" font-family="Arial, sans-serif" font-size="12" fill="#0f172a">
<tspan x="250.0" dy="0">Quantitative</tspan>
<tspan x="250.0" dy="16">- momentum &amp; volatility</tspan>
<tspan x="250.0" dy="16">- alpha signal strength</tspan>
<tspan x="250.0" dy="16">- technical context</tspan>
</text>
<polyline points="950,1274 950,1300 250.0,1300 250.0,1320" fill="none" stroke="#334155" stroke-width="1.6"/>
<polygon points="250.0,1320 245.5,1311 254.5,1311" fill="#334155"/>
<rect x="435" y="1320" width="320" height="260" rx="8" fill="#dcfce7" stroke="#334155" stroke-width="1.4"/>
<text x="595.0" y="1428.4" text-anchor="middle" font-family="Arial, sans-serif" font-size="12" fill="#0f172a">
<tspan x="595.0" dy="0">Fundamentals</tspan>
<tspan x="595.0" dy="16">- valuation and peers</tspan>
<tspan x="595.0" dy="16">- financial health</tspan>
<tspan x="595.0" dy="16">- earnings context</tspan>
</text>
<polyline points="950,1274 950,1300 595.0,1300 595.0,1320" fill="none" stroke="#334155" stroke-width="1.6"/>
<polygon points="595.0,1320 590.5,1311 599.5,1311" fill="#334155"/>
<rect x="780" y="1320" width="320" height="260" rx="8" fill="#fef3c7" stroke="#334155" stroke-width="1.4"/>
<text x="940.0" y="1428.4" text-anchor="middle" font-family="Arial, sans-serif" font-size="12" fill="#0f172a">
<tspan x="940.0" dy="0">Sentiment</tspan>
<tspan x="940.0" dy="16">- news narrative</tspan>
<tspan x="940.0" dy="16">- social/web pulse</tspan>
<tspan x="940.0" dy="16">- positioning tone</tspan>
</text>
<polyline points="950,1274 950,1300 940.0,1300 940.0,1320" fill="none" stroke="#334155" stroke-width="1.6"/>
<polygon points="940.0,1320 935.5,1311 944.5,1311" fill="#334155"/>
<rect x="1125" y="1320" width="320" height="260" rx="8" fill="#fee2e2" stroke="#334155" stroke-width="1.4"/>
<text x="1285.0" y="1428.4" text-anchor="middle" font-family="Arial, sans-serif" font-size="12" fill="#0f172a">
<tspan x="1285.0" dy="0">Risk Guardian</tspan>
<tspan x="1285.0" dy="16">- tail risk / CVaR</tspan>
<tspan x="1285.0" dy="16">- options positioning</tspan>
<tspan x="1285.0" dy="16">- stress scenarios</tspan>
</text>
<polyline points="950,1274 950,1300 1285.0,1300 1285.0,1320" fill="none" stroke="#334155" stroke-width="1.6"/>
<polygon points="1285.0,1320 1280.5,1311 1289.5,1311" fill="#334155"/>
<rect x="1470" y="1320" width="320" height="260" rx="8" fill="#ede9fe" stroke="#334155" stroke-width="1.4"/>
<text x="1630.0" y="1428.4" text-anchor="middle" font-family="Arial, sans-serif" font-size="12" fill="#0f172a">
<tspan x="1630.0" dy="0">Macro Regime</tspan>
<tspan x="1630.0" dy="16">- rates and curve shape</tspan>
<tspan x="1630.0" dy="16">- risk-on/off regime</tspan>
<tspan x="1630.0" dy="16">- cross-asset backdrop</tspan>
</text>
<polyline points="950,1274 950,1300 1630.0,1300 1630.0,1320" fill="none" stroke="#334155" stroke-width="1.6"/>
<polygon points="1630.0,1320 1625.5,1311 1634.5,1311" fill="#334155"/>
<rect x="735.0" y="1620" width="430" height="72" rx="8" fill="#f8fafc" stroke="#334155" stroke-width="1.4"/>
<text x="950.0" y="1656.0" text-anchor="middle" font-family="Arial, sans-serif" font-size="13" fill="#0f172a">
<tspan x="950.0" dy="0">extract_claims</tspan>
</text>
<rect x="735.0" y="1720" width="430" height="72" rx="8" fill="#dcfce7" stroke="#334155" stroke-width="1.4"/>
<text x="950.0" y="1748.2" text-anchor="middle" font-family="Arial, sans-serif" font-size="13" fill="#0f172a">
<tspan x="950.0" dy="0">Round 2: debate</tspan>
<tspan x="950.0" dy="17">status=round_2</tspan>
</text>
<rect x="735.0" y="1820" width="430" height="72" rx="8" fill="#dcfce7" stroke="#334155" stroke-width="1.4"/>
<text x="950.0" y="1848.2" text-anchor="middle" font-family="Arial, sans-serif" font-size="13" fill="#0f172a">
<tspan x="950.0" dy="0">Round 3: memo synthesis</tspan>
<tspan x="950.0" dy="17">status=round_3</tspan>
</text>
<rect x="735.0" y="1920" width="430" height="72" rx="8" fill="#e2fbe8" stroke="#334155" stroke-width="1.4"/>
<text x="950.0" y="1948.2" text-anchor="middle" font-family="Arial, sans-serif" font-size="13" fill="#0f172a">
<tspan x="950.0" dy="0">Persist memo</tspan>
<tspan x="950.0" dy="17">status=complete</tspan>
</text>
<polyline points="250.0,1580 250.0,1600 950,1600 950,1620" fill="none" stroke="#334155" stroke-width="1.6"/>
<polygon points="950,1620 945.5,1611 954.5,1611" fill="#334155"/>
<polyline points="595.0,1580 595.0,1600 950,1600 950,1620" fill="none" stroke="#334155" stroke-width="1.6"/>
<polygon points="950,1620 945.5,1611 954.5,1611" fill="#334155"/>
<polyline points="940.0,1580 940.0,1600 950,1600 950,1620" fill="none" stroke="#334155" stroke-width="1.6"/>
<polygon points="950,1620 945.5,1611 954.5,1611" fill="#334155"/>
<polyline points="1285.0,1580 1285.0,1600 950,1600 950,1620" fill="none" stroke="#334155" stroke-width="1.6"/>
<polygon points="950,1620 945.5,1611 954.5,1611" fill="#334155"/>
<polyline points="1630.0,1580 1630.0,1600 950,1600 950,1620" fill="none" stroke="#334155" stroke-width="1.6"/>
<polygon points="950,1620 945.5,1611 954.5,1611" fill="#334155"/>
<line x1="950" y1="1692" x2="950" y2="1720" stroke="#334155" stroke-width="1.6"/>
<polygon points="950,1720 945.5,1711 954.5,1711" fill="#334155"/>
<line x1="950" y1="1792" x2="950" y2="1820" stroke="#334155" stroke-width="1.6"/>
<polygon points="950,1820 945.5,1811 954.5,1811" fill="#334155"/>
<line x1="950" y1="1892" x2="950" y2="1920" stroke="#334155" stroke-width="1.6"/>
<polygon points="950,1920 945.5,1911 954.5,1911" fill="#334155"/>
<text x="1800" y="2160" text-anchor="end" font-family="Arial, sans-serif" font-size="14" fill="#0f172a">Solid arrow: normal path   |   Dashed arrow: exception path</text>
</svg>