<?xml version="1.0" encoding="UTF-8"?>
<svg xmlns="http://www.w3.org/2000/svg" width="1800" height="760" viewBox="0 0 1800 760">
<rect width="100%" height="100%" fill="#ffffff"/>
<text x="900" y="42" text-anchor="middle" font-family="Arial, sans-serif" font-size="28" font-weight="700" fill="#0f172a">Agentic System Flow (Current Implementation)</text>
<rect x="40" y="100" width="190" height="62" rx="8" fill="#f8fafc" stroke="#334155" stroke-width="1.4"/>
<text x="135.0" y="131.0" text-anchor="middle" font-family="Arial, sans-serif" font-size="13" fill="#0f172a">
<tspan x="135.0" dy="0">POST /api/v1/analysis</tspan>
</text>
<rect x="280" y="100" width="220" height="62" rx="8" fill="#f8fafc" stroke="#334155" stroke-width="1.4"/>
<text x="390.0" y="122.0" text-anchor="middle" font-family="Arial, sans-serif" font-size="13" fill="#0f172a">
<tspan x="390.0" dy="0">Create Redis state</tspan>
<tspan x="390.0" dy="18">status=pending</tspan>
</text>
<rect x="550" y="100" width="220" height="62" rx="8" fill="#f8fafc" stroke="#334155" stroke-width="1.4"/>
<text x="660.0" y="131.0" text-anchor="middle" font-family="Arial, sans-serif" font-size="13" fill="#0f172a">
<tspan x="660.0" dy="0">Background pipeline starts</tspan>
</text>
<rect x="820" y="100" width="220" height="62" rx="8" fill="#f8fafc" stroke="#334155" stroke-width="1.4"/>
<text x="930.0" y="122.0" text-anchor="middle" font-family="Arial, sans-serif" font-size="13" fill="#0f172a">
<tspan x="930.0" dy="0">Round 0: predict_alpha</tspan>
<tspan x="930.0" dy="18">status=predicting</tspan>
</text>
<rect x="1100" y="60" width="220" height="56" rx="8" fill="#dbeafe" stroke="#334155" stroke-width="1.4"/>
<text x="1210.0" y="88.0" text-anchor="middle" font-family="Arial, sans-serif" font-size="13" fill="#0f172a">
<tspan x="1210.0" dy="0">run_chronos_inference</tspan>
</text>
<rect x="1100" y="148" width="220" height="56" rx="8" fill="#dcfce7" stroke="#334155" stroke-width="1.4"/>
<text x="1210.0" y="176.0" text-anchor="middle" font-family="Arial, sans-serif" font-size="13" fill="#0f172a">
<tspan x="1210.0" dy="0">run_fincast_lora_inference</tspan>
</text>
<rect x="1380" y="60" width="180" height="56" rx="8" fill="#e2e8f0" stroke="#334155" stroke-width="1.4"/>
<text x="1470.0" y="88.0" text-anchor="middle" font-family="Arial, sans-serif" font-size="13" fill="#0f172a">
<tspan x="1470.0" dy="0">chronos ok?</tspan>
</text>
<rect x="1380" y="148" width="180" height="56" rx="8" fill="#e2e8f0" stroke="#334155" stroke-width="1.4"/>
<text x="1470.0" y="176.0" text-anchor="middle" font-family="Arial, sans-serif" font-size="13" fill="#0f172a">
<tspan x="1470.0" dy="0">fincast ok?</tspan>
</text>
<rect x="1610" y="60" width="150" height="56" rx="8" fill="#e2fbe8" stroke="#334155" stroke-width="1.4"/>
<text x="1685.0" y="88.0" text-anchor="middle" font-family="Arial, sans-serif" font-size="13" fill="#0f172a">
<tspan x="1685.0" dy="0">alpha stored</tspan>
</text>
<rect x="1610" y="148" width="150" height="56" rx="8" fill="#fee2e2" stroke="#334155" stroke-width="1.4"/>
<text x="1685.0" y="176.0" text-anchor="middle" font-family="Arial, sans-serif" font-size="13" fill="#0f172a">
<tspan x="1685.0" dy="0">status=error</tspan>
</text>
<line x1="230" y1="131" x2="280" y2="131" stroke="#334155" stroke-width="1.5"/>
<polygon points="280,131 272,127 272,135" fill="#334155"/>
<line x1="500" y1="131" x2="550" y2="131" stroke="#334155" stroke-width="1.5"/>
<polygon points="550,131 542,127 542,135" fill="#334155"/>
<line x1="770" y1="131" x2="820" y2="131" stroke="#334155" stroke-width="1.5"/>
<polygon points="820,131 812,127 812,135" fill="#334155"/>
<line x1="1040" y1="131" x2="1100" y2="88" stroke="#334155" stroke-width="1.5"/>
<polygon points="1100,88 1092,84 1092,92" fill="#334155"/>
<text x="1070.0" y="103.5" text-anchor="middle" font-family="Arial, sans-serif" font-size="11" fill="#334155">chronos</text>
<line x1="1040" y1="131" x2="1100" y2="176" stroke="#334155" stroke-width="1.5"/>
<polygon points="1100,176 1092,172 1092,180" fill="#334155"/>
<text x="1070.0" y="147.5" text-anchor="middle" font-family="Arial, sans-serif" font-size="11" fill="#334155">fincast_lora</text>
<line x1="1320" y1="88" x2="1380" y2="88" stroke="#334155" stroke-width="1.5"/>
<polygon points="1380,88 1372,84 1372,92" fill="#334155"/>
<line x1="1320" y1="176" x2="1380" y2="176" stroke="#334155" stroke-width="1.5"/>
<polygon points="1380,176 1372,172 1372,180" fill="#334155"/>
<line x1="1560" y1="88" x2="1610" y2="88" stroke="#334155" stroke-width="1.5"/>
<polygon points="1610,88 1602,84 1602,92" fill="#334155"/>
<text x="1585.0" y="82.0" text-anchor="middle" font-family="Arial, sans-serif" font-size="11" fill="#334155">yes</text>
<line x1="1560" y1="176" x2="1610" y2="176" stroke="#334155" stroke-width="1.5"/>
<polygon points="1610,176 1602,172 1602,180" fill="#334155"/>
<text x="1585.0" y="170.0" text-anchor="middle" font-family="Arial, sans-serif" font-size="11" fill="#334155">no</text>
<rect x="240" y="280" width="1320" height="430" rx="12" fill="#f8fafc" stroke="#94a3b8" stroke-width="1.2"/>
<text x="900" y="314" text-anchor="middle" font-family="Arial, sans-serif" font-size="18" font-weight="700" fill="#0f172a">Committee Rounds (top-to-bottom)</text>
<rect x="320" y="350" width="320" height="62" rx="8" fill="#dbeafe" stroke="#334155" stroke-width="1.4"/>
<text x="480.0" y="372.0" text-anchor="middle" font-family="Arial, sans-serif" font-size="13" fill="#0f172a">
<tspan x="480.0" dy="0">Round 1: agent analysis (parallel)</tspan>
<tspan x="480.0" dy="18">status=round_1</tspan>
</text>
<rect x="320" y="435" width="320" height="62" rx="8" fill="#f8fafc" stroke="#334155" stroke-width="1.4"/>
<text x="480.0" y="466.0" text-anchor="middle" font-family="Arial, sans-serif" font-size="13" fill="#0f172a">
<tspan x="480.0" dy="0">Prefetch tools + trace build</tspan>
</text>
<rect x="320" y="520" width="320" height="62" rx="8" fill="#f8fafc" stroke="#334155" stroke-width="1.4"/>
<text x="480.0" y="551.0" text-anchor="middle" font-family="Arial, sans-serif" font-size="13" fill="#0f172a">
<tspan x="480.0" dy="0">LLM AgentView + correction pass</tspan>
</text>
<rect x="760" y="350" width="260" height="62" rx="8" fill="#f8fafc" stroke="#334155" stroke-width="1.4"/>
<text x="890.0" y="381.0" text-anchor="middle" font-family="Arial, sans-serif" font-size="13" fill="#0f172a">
<tspan x="890.0" dy="0">extract_claims</tspan>
</text>
<rect x="760" y="435" width="260" height="62" rx="8" fill="#dcfce7" stroke="#334155" stroke-width="1.4"/>
<text x="890.0" y="457.0" text-anchor="middle" font-family="Arial, sans-serif" font-size="13" fill="#0f172a">
<tspan x="890.0" dy="0">Round 2: debate</tspan>
<tspan x="890.0" dy="18">status=round_2</tspan>
</text>
<rect x="760" y="520" width="260" height="62" rx="8" fill="#dcfce7" stroke="#334155" stroke-width="1.4"/>
<text x="890.0" y="542.0" text-anchor="middle" font-family="Arial, sans-serif" font-size="13" fill="#0f172a">
<tspan x="890.0" dy="0">Round 3: memo synthesis</tspan>
<tspan x="890.0" dy="18">status=round_3</tspan>
</text>
<rect x="1120" y="435" width="320" height="62" rx="8" fill="#e2fbe8" stroke="#334155" stroke-width="1.4"/>
<text x="1280.0" y="457.0" text-anchor="middle" font-family="Arial, sans-serif" font-size="13" fill="#0f172a">
<tspan x="1280.0" dy="0">Persist memo</tspan>
<tspan x="1280.0" dy="18">status=complete</tspan>
</text>
<line x1="1610" y1="88" x2="480" y2="350" stroke="#334155" stroke-width="1.5"/>
<polygon points="480,350 488,346 488,354" fill="#334155"/>
<line x1="480" y1="412" x2="480" y2="435" stroke="#334155" stroke-width="1.5"/>
<polygon points="480,435 476,427 484,427" fill="#334155"/>
<line x1="480" y1="497" x2="480" y2="520" stroke="#334155" stroke-width="1.5"/>
<polygon points="480,520 476,512 484,512" fill="#334155"/>
<line x1="640" y1="381" x2="760" y2="381" stroke="#334155" stroke-width="1.5"/>
<polygon points="760,381 752,377 752,385" fill="#334155"/>
<line x1="890" y1="412" x2="890" y2="435" stroke="#334155" stroke-width="1.5"/>
<polygon points="890,435 886,427 894,427" fill="#334155"/>
<line x1="890" y1="497" x2="890" y2="520" stroke="#334155" stroke-width="1.5"/>
<polygon points="890,520 886,512 894,512" fill="#334155"/>
<line x1="1020" y1="466" x2="1120" y2="466" stroke="#334155" stroke-width="1.5"/>
<polygon points="1120,466 1112,462 1112,470" fill="#334155"/>
<line x1="770" y1="162" x2="1610" y2="176" stroke="#334155" stroke-width="1.5"/>
<polygon points="1610,176 1602,172 1602,180" fill="#334155"/>
<text x="1190.0" y="163.0" text-anchor="middle" font-family="Arial, sans-serif" font-size="11" fill="#334155">any unhandled exception</text>
</svg>